<?xml version="1.0" encoding="utf-8"?>
<!-- Generator: Adobe Illustrator 28.3.0, SVG Export Plug-In . SVG Version: 6.00 Build 0)  -->
<svg version="1.1" xmlns="http://www.w3.org/2000/svg" xmlns:xlink="http://www.w3.org/1999/xlink" x="0px" y="0px"
	 viewBox="0 0 4000 4000" style="enable-background:new 0 0 4000 4000;" xml:space="preserve">
<style type="text/css">
	.st0{fill:#CCE0F4;}
	.st1{fill:#1E9CD7;}
</style>
<g id="BACKGROUND">
	<rect class="st0" width="4000" height="4000"/>
</g>
<g id="OBJECTS">
	<g>
		<path class="st1" d="M2681.65,4000c-33.24-12.34-69.35-14.51-103.87-18.59c-139.48-16.5-277.06-54.48-418.99-44.23
			c-83.63,6.04-166.72,19.39-250.32,26.25c-37.09,3.04-57.59-22.47-71.42-55.28c-14.18-33.64-25.22-79.13-73.1-71.07
			c-60.52,10.19-77.56,60.72-83.7,115.18c-0.89,7.88-2.36,15.69-3.56,23.53c-6.78-4.62-14.44-8.34-20.19-14.01
			c-89.91-88.49-82.03-210.81,41.69-263.37c187.39-79.6,290.89-229.19,394.06-387.49c41.68-63.95,99.35-117.63,182.58-77.87
			c85.95,41.06,69.9,126.04,54.05,195.76c-42.42,186.67,10.17,372.19,129.73,423.01c107.83,45.83,225.18,52.39,337.17,81.05
			c53.48,13.68,104.34,33.26,147.85,67.14h210.6c-61.68-33.46-122.98-67.72-186.08-98.22c-102.45-49.52-215.01-63.66-324.8-88.37
			c-166.8-37.54-242.75-206.56-209.47-392.59c43.7-244.28,217.62-376.28,394.51-511.88c154.95-118.78,293.1-249.91,290.33-466.44
			c-1.75-136.48-61.36-249.7-155.66-344.62c-142.02-142.95-123.92-300.15-51.62-467.55c71.96-166.59,125.13-336.51,59.35-520.79
			c-26.14-73.22-85.55-109.29-142.27-151.03c-98.81-72.69-101.56-142.62,6.6-199.98c132.66-70.35,193.27-175.29,220.18-318.67
			c33.57-178.93,183.38-235.76,358.28-151.61c122.96,59.16,222.51,157.46,351.15,206.36c79.18,30.1,157.6,29.73,235.28,0.01V377.91
			c-231.29,110.61-392.94-32.43-556.78-165.89c-99.45-81.01-207.54-117.09-337.75-88.43c-43.9,9.66-122.98,23.59-123.44-48.56
			C2981.59,3.36,3049.79,8.41,3103.11,0h-282.1c7.4,122.17,62.48,233.46,82.23,352.9c27.41,165.81-57.42,277.22-177.75,371.27
			c-40.98,32.03-82.76,63.77-127.41,90.17c-47.55,28.12-109.84,59.65-143.05-5.55c-34.26-67.25,33.7-96.83,80.8-122.26
			c90.88-49.08,204.38-66.47,234.17-192.25c29.99-126.67-16.4-242.98-40.55-362.71c-8.78-43.51-14.47-87.64-21.2-131.57h-108.03
			c15.06,45.77,30.43,91.45,44.86,137.42c38.2,121.68,89.59,246.22-11.5,360.78c-67.67,76.68-166.9,121.13-226.9,206.38
			c-82.2,116.8-167.72,227.94-306.67,283.38c-32.2,12.85-78.02,25.8-75.44,68.32c2.8,46.09,48.81,65.16,85.44,85.25
			c112.67,61.77,240.66,43,360.46,67.46c61.35,12.52,125.1,28.64,147.55,96.58c17.12,51.81-15.47,94.27-54.42,120.68
			c-76.81,52.08-156.68,100.45-238.76,143.77c-198.41,104.73-374.4,232.68-473.2,442.55c-26.47,56.22-47.67,118.17-12.1,178.6
			c19.51,33.14,55.7,45.66,94.06,40.55c70.54-9.4,127.42-49.64,185.47-86.65c120.49-76.82,237.93-169.07,384.97-177.87
			c157.04-9.39,273.6,100.17,398.88,174.78c106.14,63.22,170.65,161.39,150.53,290.51c-37.06,237.88-185.11,401.09-378.19,528.08
			c-61.08,40.18-131.64,77.2-205.27,38.21c-67.9-35.95-58.32-107.71-45.17-167.83c28.14-128.58-19.33-205.06-130.37-275.14
			c-142.55-89.96-145.3-165.54-29.27-267.17c84.15-73.7,181.99-150.57,298.31-130.12c178.36,31.36,271.11,170.36,273.48,363.47
			c0.31,24.85-5.19,58.09,27.33,69.09c10.29,3.48,30.34-6.22,38.87-16.03c34.02-39.14,47.45-87.28,50.89-138.25
			c9.6-142.18-89.65-206.12-194.14-261.54c-81.84-43.41-156.04-117.83-258.14-100.97c-134.94,22.29-227.25,130.89-347.24,185.64
			c-104.56,47.71-119.57,113.64-46.87,203.34c32.78,40.44,73.35,76.61,116.09,106.55c165.99,116.28,185.47,197.63,76.28,346.38
			c-56.57,77.06-129.94,146.15-168.45,231.21c-88.28,195.02-210.37,338.71-419.98,414.65c-223.76,81.07-287.79,286.94-155.66,437.93
			H2681.65z M2032.75,2099.95c-29.3,28.9-79.01,69.78-111.28,27.6c-46.37-60.6,15.13-109.91,52.6-150.3
			c159.49-171.91,362.18-288.36,550.76-423.11c74.54-53.26,143.87-117.46,165.88-211.28c20.19-86.04-50.45-113.91-109.5-146.22
			c-17.6-9.63-47.54-12.54-44.43-36.31c1.13-8.64,38.15-17.5,58.92-17.82c113.09-1.74,185.43,66.5,185.43,203.72
			c-10.04,132.1-114.25,238.43-236.64,322.32C2358.97,1795.74,2192.19,1942.71,2032.75,2099.95z M2347.64,1939.43
			c-5.68,1.77-11.79,2.18-17.7,3.22c2.1-6.3,2.95-13.43,6.5-18.76c75.63-113.78,200.37-167.7,304.86-245.28
			c156.21-115.99,249.47-338.21,182.89-469.45c-49.86-98.28-134.07-139.02-257.03-138.82c-62-0.72-134.21,24.96-207.54,45.87
			c-31.13,8.88-72.86,27.53-90.31-8.76c-17.01-35.39,22.21-56.56,49.93-71.32c216.36-115.26,547.84-84.69,615.96,196.53
			c40.5,167.19-35.28,307.1-136.74,431.33C2681.3,1807.41,2520.91,1885.3,2347.64,1939.43z"/>
		<path class="st1" d="M2483,0h-81.26c50.87,61.68,90.38,128.57,100.66,211.1c12.8,102.77-9.46,197.59-84.14,267.56
			c-132.59,124.22-216.44,292.42-364.85,400.88c-111.09,81.18-230.64,60.09-343.11,7.89c-133.66-62.04-260.33-50.61-388.68,8.6
			c-8,3.69-17.3,4.56-25.99,6.75c2.33-8.99,3.43-18.54,7.18-26.89c44.68-99.38,219.96-138.35,353.9-80.89
			c134.16,57.57,268.44,132.58,409.78,15.96c96.41-79.55,152.65-190.82,227.55-287.39c56.93-73.41,135.96-135.28,140.13-237.09
			c5.55-135.3-67.01-223.23-174.74-286.47h-540.85c51.09,17.65,102,35.95,153.91,50.73c98.32,28,196.04-15.66,294.24-6.84
			c95.94,8.61,166.87,59.7,212.95,142.74c28.31,51,27.41,103.92-6.93,154.29c-13.48,19.77-31.06,31.96-53.96,28.52
			c-27.39-4.11-38.61-26.99-44.6-51.34c-40.6-164.98-87.99-199.73-251.67-154.36c-106.89,29.63-186.12-26.16-272.26-61.24
			c-187.21-76.24-372.17,43.15-373.03,244.2c-0.21,48.5-3.35,97.12-7.89,145.43c-3.17,33.65-9.73,72.32-55.92,65.81
			c-42.22-5.95-57.79-44.99-56.5-80.24c7.17-194.92,44.56-421.41,273.31-477.69h-169.93c-118.09,149.38-168.62,320.79-150.1,510.43
			c6.93,70.88,45.95,137.2,129.65,124.91c90.62-13.31,78.66-99.89,88.25-164.98c17.37-117.86,0.57-251.06,133.87-317.12
			c88.03-43.63,172.07-13.66,243.52,41.1c61.63,47.23,120.91,64.83,200.77,56.44c176.5-18.54,239.76,69.17,196.97,254.87
			c-39.07,169.57-176.71,315.43-298.16,312.82c-90.66-1.95-157.21-65.73-236.33-97.38c-154.27-61.72-278.56,5.09-395.55,98.01
			c-177.71,141.14-368.04,254.8-600.84,275.1c-21.61,1.88-47.3-1.32-52.23-25.24c-5.51-26.76,21.23-34.21,40.95-41.19
			c108.55-38.38,222.3-62.4,323.7-120.42C1136.63,820.45,1153.6,687.98,1128,529.5C1097.8,342.58,1140.17,164.8,1234.07,0h-89.34
			c-71.96,179.63-61.34,370.04-70.33,558.08c-5.23,109.48-28.87,214.63-108.45,296.31c-164.57,168.91-411.94,161.81-594.74-11.95
			c-24.86-23.63-57.56-71.35-94.05-40.81c-36.9,30.89-0.07,70.2,22.39,101.23c15.33,21.19,30.49,42.81,48.22,61.91
			c94.16,101.43,178.45,220.27,342.4,204.39c99.51-9.64,177.2-71.26,263.03-112.93c185.79-90.2,373.24,26.15,373.24,233.26
			c0,256.12-262.36,436.72-526.84,381.4c-183.01-38.28-345.12-132.17-526.78-170.22c-102.26-21.42-225.38,48.47-250.86,150.69
			c-21.34,85.62,38.25,158.09,147.85,187.67c155.46,41.96,300.38,100.92,402.76,237.21c107.64,143.3,146.09,148.2,298.24,42.28
			c126.39-87.98,256.3-127.99,408.69-72.39c139.37,50.85,197.25,13.49,198.58-134.61c1.71-190.09,89.3-312.18,262.81-379.52
			c149.25-57.92,227.4-198.81,189.93-351.28c-19.99-81.34-85.2-113.19-161.34-95.83c-67.93,15.49-43.02,76.29-33.49,120.82
			c25.87,120.89,16.82,228.9-94.17,307.35c-70.23,49.64-136.65,103.17-169.97,186.91c-25.38,63.8-52.42,127.32-100.58,177.7
			c-106.28,111.18-249.89,92.48-383.29,105.92c-284.29,28.63-519.27-105.94-754.96-235.02c-45.91-25.14-100.77-61.14-64.01-121.79
			c34.86-57.5,95.62-38.22,143.37-9.55c159.18,95.55,313.79,196.17,502.14,232.97c160.91,31.44,323.85-8.27,398.53-110.19
			c143.69-196.11,180.98-418.02,173.21-654.28c-4.77-144.93,78.54-210.34,216.02-164.25c220.17,73.83,420.95,68.72,587.36-115.4
			c86.16-95.32,153.5-207.92,258.84-285.58c92.05-67.86,134.94-154.51,117.02-270.75C2551.92,161.4,2515.29,81.6,2483,0z"/>
		<path class="st1" d="M3597.6,3776.18c-194.02-172.49-296.53-347.77-136.35-582.93c86.53-127.03,280.13-170.37,470.57-106.11
			c22.3,7.52,45.31,12.93,68.19,18.73v-213.49c-93.47,17.19-187.3,32.72-280.18,52.66c-244.22,52.44-431.28,232.02-450.89,470.18
			c-16.12,195.74,113.68,322.76,268.83,423.8c43.27,28.18,105.81,56.5,80.15,125.13c-8.01,21.43-22.79,31.72-40.3,35.85h132.63
			C3732.4,3898.72,3663.64,3834.9,3597.6,3776.18z"/>
		<path class="st1" d="M2763.4,3679.08c191.49,66.13,349.96,193.88,531.52,277.95c32.34,14.97,65.12,28.97,97.91,42.97h135.27
			c-6.97-1.04-13.83-2.33-20.4-3.62c-163.35-32.15-292.75-120.99-406.84-240.1c-182.97-191.03-143.25-610.2,72.85-761.21
			c120.05-83.89,236.76-172.87,351.28-264.2c33.75-26.92,65.13-81.03,25.5-114.3c-41.09-34.48-58.29,26.26-82.75,51.3
			c-44.57,45.63-85.16,97.46-136.58,133.66c-198.51,139.73-377.37,292.17-426.48,548.02c-8.67,45.17-28.36,92.13-85.84,76.81
			c-44.51-11.87-47.07-57.23-39.03-96.3c43.98-213.8,186.11-357.71,347.8-488.22c92.22-74.43,204.33-131.55,248.41-251.84
			c36.35-99.2-15.34-195.74-19.94-294.16c-3.8-81.4,11.85-171.39-41.24-240.22c-39.57-51.31-108.74-80.23-146.44-132.38
			c-101.22-140.02-66.64-297.89-28.61-447.41c41.87-164.62,79.21-325.19,39.77-496.69c-36.84-160.17-34.63-320.73,39.02-473.25
			c12.81-26.53,32.79-51.2,66.18-44.13c34.51,7.31,39,37.95,38.85,68.07c-0.6,123.75-37.71,244.34-24.99,370.03
			c11.94,118.02,90.75,204.86,180.59,183.51c156.12-37.11,328.42,44.22,384.04,193.53c55.19,148.17,24.37,310.05,57.93,462.71
			c15.81,71.95,26.44,145.98,78.81,201.86v-234.95c-29.03-78.96-36.02-162.85-37.72-245.3c-5.33-259.63-122.85-427.13-373.68-505.95
			c-160.55-50.45-215.11-158.39-205.11-375.87c3.55-77.34,29.02-168.57-75.22-190.1c-96.34-19.9-122.1,69.55-150.59,138.06
			c-40.25,96.8-101.35,176.81-172.5,253.07c-72.16,77.35,3.93,133.6,43.92,190.05c132.6,187.14,112.8,390.02,25.9,576.67
			c-100.38,215.61-57.09,375.76,98.77,541.53c157.82,167.86,177.57,430.92,58.21,591.58c-93.2,125.44-238.54,197.18-347.22,307.86
			c-129.43,131.82-281.78,252.39-305.48,451.73C2542.34,3582.29,2650.77,3640.19,2763.4,3679.08z"/>
		<path class="st1" d="M2464.93,1332.29c-2.03-10.3-21.18-22.04-34.21-24.6c-109.4-21.5-223.25-17.7-328.73-62.78
			c-37.54-16.05-56.49,11.45-59.49,45.13c-14.61,163.59-87.09,280.45-249.48,336.52c-94.84,32.74-189.09,80.41-211.39,190
			c-15.6,76.64-9.65,157.9-11.1,237.14c-1.84,101.19-54.57,149.36-152.09,130.55c-86.26-16.65-170.73-50.45-257.31-56.01
			c-186.14-11.95-299.5,114.23-403.44,243.47c-49.24,61.22-40.76,130.14,21.62,183.6c41.19,35.31,85.28,22.45,124.42-5.5
			c46.72-33.36,86.23-81.56,137.35-103.25c265.73-112.77,523.75-58.79,760.81,75.86c211.11,119.91,257.13,283.11,160.98,444.11
			c-89,149.03-241.97,191.98-391.82,242.28c-200.33,67.24-376.02,161.09-430.23,392.25c-29.24,124.69-92.03,229.6-231.19,251.29
			c-125.79,19.61-205.46-63.83-284.25-146.07c-66.62-69.52-128.41-147.87-222.65-182.44C238.24,3463.48,116.12,3545.8,0,3644.39
			v143.58c34.43-50.28,66.13-102.8,117.97-138.57c153.65-106.04,284.91-80.9,400.88,69.64c78.64,102.08,163.1,199.68,264.02,280.97
			h377.5c-55.93-235.34,49.38-417.03,209.81-575.49c102.44-101.2,244.49-138.41,368.61-204.71
			c164.59-87.91,303.41-200.81,340.15-397.48c26.95-144.22-75.32-214.42-172.41-287.19c-70.27-52.67-160.02-89.34-175.5-191.75
			c-2.46-16.28,6.39-34.27,10.01-51.47c8.11,3.89,18.34,5.86,23.92,12.04c12.75,14.12,22.59,30.83,34.74,45.56
			c76.63,92.91,174.68,161.57,267.24,236.52c126.54,102.46,122.65,226.35,21.58,404.38c-132.27,232.99-352.35,348.91-571.94,469.14
			c-161.44,88.4-311.7,337.73-222.95,540.45h125.28c-112.91-235.09,12.69-482.6,244.69-561.41
			c102.1-34.68,214.48-52.04,284.4-149.38c81.42-113.34,125.34-250.05,223.17-353.58c46.32-49.02,95.82-101.41,87.8-176.67
			c-10.6-99.44-97.71-139.66-162.41-195.89c-119.67-104.01-265.24-190.14-315.44-349.77c-67.66-215.15,46.89-379.44,182.32-529.63
			c128-141.95,308.73-202.97,467.18-298.19C2449.96,1373.85,2469.81,1357.05,2464.93,1332.29z M1814.57,1799.99
			c-65.46,118.49-88.64,247.61-108.4,379.74c-23.43,156.62-139.71,229.65-294,166.26c-204.47-84-374.56-60.8-526.57,99.98
			c-17.2,18.19-52.99,44.75-67.87,18.4c-25.71-45.53,14.19-84.14,42.64-117.01c145.07-167.62,315.88-195.23,518.94-108.19
			c77.99,33.43,186.79,80,234.45-48.6c24.35-65.7,21.87-141.36,31.52-212.51c4.12-85.13-1.23-174.42,67.39-240.13
			c29.07-27.84,68.25-54.82,105.7-30.61C1855.12,1731.07,1830.7,1770.78,1814.57,1799.99z"/>
		<path class="st1" d="M1874.59,2812.3c-26.85-25.86-61.77,43.73-89.74,73.65c-60.17,64.38-129.84,101.62-216.7,65.64
			c-81.43-33.73-160.52-53.6-246.81-20.27c-177.61,68.6-329.76,191.87-524.69,226.39c-166.68,29.51-357.97-62.18-409.83-223.24
			c-40.66-126.26-7.54-261-39.18-388.97C297.05,2340.9,201.96,2170.98,0,2082.95v95.01c152.65,74.9,222.02,213.8,260.4,368.2
			c51.92,208.84,81.83,423.2,14.06,633.31c-41.58,128.91-150.92,195.85-274.46,238v81.92c283.7-211.75,507.32-142.18,717.47,100.05
			c110.96,127.9,226.59,128.37,288.88-28.58c93.18-234.81,237.58-405.42,487.06-476.89c119.45-34.22,253.75-36.42,344.24-140.6
			C1873.11,2912.53,1917.22,2853.36,1874.59,2812.3z M1424.08,3048.22c-163.98,86.17-291.4,224.07-449.97,317.45
			c-56.59,33.32-119.03,49.73-193.05,50.12c-106.68-4.09-209.43-44.92-303.49-108.08c-20.11-13.5-47.98-33.8-31.7-64.64
			c21.51-40.75,61.42-36.22,95.44-22.26c253.16,103.91,452.02-15.98,648.98-152.34c66.38-45.95,135.2-92.25,223.44-84.94
			c18.69,1.55,35.67,10.09,35.55,25.19C1449.18,3022.24,1436.56,3041.67,1424.08,3048.22z"/>
		<path class="st1" d="M1694.45,2578.25c-191.34-81.65-393.55-52.16-592.38-36.71c-40.48,3.14-83.01,40.61-75.07,89.46
			c5.26,32.34,48.99,27.35,74.66,21.13c144.05-34.92,289.01-56.64,436.77-33.25c43.8,6.93,111.23,1.77,111.08,64.15
			c-0.16,64.94-64.08,60.01-109.93,55.95c-135.58-11.99-269.21-26.8-403.39,19.69c-281.37,97.49-446.83,25.49-516.73-263.98
			C536.89,2152.75,327.72,1974.68,0,1911.27v54.54c2.23,0.35,4.44,0.79,6.57,1.47c276.23,88.01,496.76,414.32,510.77,749.53
			c4.48,107.18,24.65,214.32,127.88,273.39c118.1,67.58,228.76,16.52,328.43-46.81c184.65-117.34,363.87-228.55,598.95-132.53
			c63.71,26.02,145.89-4.11,180.31-78.53C1782.54,2668.25,1753.62,2603.5,1694.45,2578.25z"/>
		<path class="st1" d="M1188.27,1159.45c-50.35-73.36-155.9-82.38-247.81-17.17c-74.96,53.18-137.57,126.8-238.6,133.37
			c-158.47,10.3-259.74-87.49-360.02-188.58C205.52,949.64,165.69,941.46,0,1026.17V1160c157.15-77.99,273.95,22.05,399.19,95.13
			c222.37,129.76,365.69,114.32,582.73-53.28c30.31-23.41,71.52-56.13,102.67-20.62c37.7,42.99,5.5,91.87-27.89,124.71
			c-149.81,147.37-331.84,151.16-523.73,114.5c-128.78-24.6-231.65-111.33-357.21-142.05c-64.45-15.77-120.87,6.18-175.75,34.96
			v122.93c61.29-49.93,129.67-90.59,210.06-65.93c128.42,39.4,250.61,99.99,379.79,135.9c179.08,49.78,361.88,87.97,532.99-33.65
			C1218.96,1404.29,1252.13,1252.5,1188.27,1159.45z"/>
		<path class="st1" d="M4000,2096.5c-25.59-27.88-52.65-54.82-72.68-86.25c-105.45-165.49-108.57-356.47-127.29-542.71
			c-17.04-169.5-158.83-287.24-322.96-262.87c-139.55,20.72-242.62,159.32-248.57,325.52c-3.79,106.09-26.5,213.84,40.74,309.28
			c36.21,51.41,112.88,52.84,144.62,110.15c46.08,83.18,17.42,174.29,23.29,261.68c7.7,114.64,39.09,216.91,139.33,284.31
			c147.78,99.36,246.57,86.15,423.52-57.74V2096.5z M3830.96,2500.63c-107.98,29.16-191.19-18.68-255.05-102.54
			c-56.81-74.6-66.44-163.78-67.25-254.33c-0.39-102.45,29.87-214.58-65.98-291.89c-54.55-43.99-133.07-53.47-157.53-138.54
			c-49.7-172.83,42.98-381.72,195.29-423.72c119.26-32.89,229.65,63.52,268.3,229.62c40.29,173.16,21.58,359.65,114.17,520.71
			c44.62,77.61,105.94,147.86,108.94,242.94C3975.12,2386.72,3939.87,2471.22,3830.96,2500.63z"/>
		<path class="st1" d="M816.46,0H647.99c-32.3,60.79-68.19,120.1-94.13,183.5c-44.11,107.84-10.66,194.19,86.22,258.4
			c37.02,24.53,82.45,45.97,83.36,99.47c0.23,13.3-15.06,35.35-27.4,38.93c-57.05,16.58-103.49-11.98-141.44-49.21
			c-153.32-150.4-178.31-336.6-73.48-523.8c1.31-2.34,2.4-4.79,3.41-7.29h-75.92c-76.15,163.32-39.26,427.65,83.05,558.91
			c60.36,64.78,131.73,116.94,225.54,77.51c80.41-33.79,84.77-112.5,81.44-185.62C791.76,299.75,781.58,149,816.46,0z"/>
		<path class="st1" d="M4000,626.77c-127.62,66.06-233.37,9.65-341.41-64.85c-44.75-30.86-104.55-123.17-159.53-31.74
			c-42.77,71.11-19.69,161.73,39.57,229.78c77.45,88.95,194.14,112.36,290.91,169.21c65.63,38.56,119.98,88.79,170.45,143.97V626.77
			z"/>
		<path class="st1" d="M1027.56,0H949c-4.19,12.14-8.5,24.24-11.64,36.64c-43.22,171.23-7.99,347.79-35.18,520.28
			c-18.58,117.84-108.42,229.53-215.64,248.32c-97.22,17.03-179.92-23.6-232.76-103.93C313.74,488.37,246.53,255.98,282.85,0h-82.88
			c-2.83,14.42-6.35,28.89-5.3,43.02c18.87,255.52,95.81,498.74,229.47,710.75c108.25,171.7,304.8,223.34,462.83,31.08
			c103.74-126.2,116.55-275.87,117.82-430.44C1005.77,236,989.63,115.88,1027.56,0z"/>
		<path class="st1" d="M3302.25,3775.35c-199.3-244.2-184.73-509.18,35.47-733.5c182.99-186.42,425.35-228.97,662.28-286.32v-172.1
			c-241.04,77.85-428.93,245.93-635.86,381.28c-349.82,228.82-356.22,660.63-15.23,892.55c11.22,7.63,23.93,13.06,35.95,19.51
			c-7.82-10.11-15.41-20.42-23.52-30.29C3341.76,3822.67,3321.74,3799.23,3302.25,3775.35z"/>
		<path class="st1" d="M3614.96,3625.84c120.29,95.65,227.98,202.94,210.49,374.16h109.14c-25.43-179.05-127.16-309.71-268-418.6
			c-72.02-55.69-119.4-131.11-92.17-227.01c27.27-96.03,100.7-134.8,197.37-130c87.92,4.37,154.87,58.82,228.21,97.94v-96.18
			c-40.27-14.68-81.32-27.77-119.69-46.38c-132.05-64.06-280.24-30.4-347.62,81.71C3461.03,3380.69,3500.95,3535.18,3614.96,3625.84
			z"/>
		<path class="st1" d="M154.57,2589.42C135.07,2485.73,94.84,2389.04,0,2328.91v140.59c80,105.61,89.61,230.91,91.54,357.69
			c1.33,87.59-24.45,164.73-91.54,223v213.59c59.54-22.51,99.36-68.2,126.66-123.18C215.52,2961.66,189.35,2774.39,154.57,2589.42z"
			/>
		<path class="st1" d="M216.41,467.21C179.09,311.37,88.44,167.88,102.59,0H42.93C26.99,116.19,79,218.43,114.5,323.74
			c59.8,177.38,21,331.44-114.5,447.2v120.81C146.55,860.12,257.35,638.2,216.41,467.21z"/>
		<path class="st1" d="M135.56,4000c25.53-105.02,81.14-184.51,203.11-179.16c106.61,4.68,152.96,105.92,220.98,170.75
			c2.78,2.65,5.39,5.49,7.92,8.41h71.04c-31.19-38.96-61.7-78.54-95.04-115.57c-68.86-76.47-123.32-177.95-240.07-186.45
			C148.1,3686.67,81.77,3845.13,45.23,4000H135.56z"/>
		<path class="st1" d="M4000,81.13c-49.8,33.85-94.02,76.77-155.1,92.31c-130.05,33.09-223.82-33.03-313.31-112.56
			C3508.1,40,3483.74,20.11,3459.58,0H3251.8c95.43,14.83,174.58,67.35,250.77,126.21c150.64,116.35,302.21,225.94,497.43,108.12
			V81.13z"/>
		<path class="st1" d="M3641.51,0c38.62,40.18,79.93,77.62,138.94,81.97c64.72,4.78,103.52-37.24,139.39-81.97H3641.51z"/>
		<path class="st1" d="M39.28,373.11C32.77,323.41,27.33,271.79,0,227.58v392.13c0.48-0.48,0.92-0.98,1.25-1.55
			C46.77,541.69,50.35,457.48,39.28,373.11z"/>
		<path class="st1" d="M438.42,4000c-22.93-36.44-52.85-66.93-97.41-68.59c-45.98-1.72-72.94,29.05-88.95,68.59H438.42z"/>
		<path class="st1" d="M2722.16,2547.51c-9.32,74.99-3.37,176.26-107.75,216.81c-67.06,26.05-51.98-37.52-57.14-72
			c-13.77-92.14-68.1-155.8-140.23-208.41c-26.51-19.34-69.83-34.03-62.35-72.45c10.27-52.74,60.49-75.42,106.01-91.94
			C2622.09,2260.95,2722.16,2343.56,2722.16,2547.51z"/>
		<path class="st1" d="M1641.06,1291.61c3.13,81.67-20.77,146.3-108.5,169.32c-54.23,14.23-64.43-24.63-63.58-62.04
			c2.46-109.46,8.28-218.9,15.61-328.16c1.8-26.84,9.96-60.16,44.77-61.87c49.89-2.45,61.73,42,75.06,76.73
			C1629.69,1151.42,1641.85,1220.57,1641.06,1291.61z"/>
		<path class="st1" d="M1873.23,715c-91.46-56.97-206.38-110.88-298.36-191.14c-81.88-71.45-56.91-243.92,25.37-277.94
			c79.22-32.75,129.86,30.52,184.27,70.54c62.87,46.24,127.7,64.5,206.85,51.21c110.84-18.62,139.56,20.78,104.77,144.25
			C2067.49,613.55,2007.92,689.86,1873.23,715z"/>
		<path class="st1" d="M2033.36,3843.23c-82.86-4.68-93.07-47.68-60.85-109.54c44.08-84.62,89.97-168.35,137.4-251.14
			c14.31-24.99,33.97-56.15,67.65-48.36c39.59,9.17,53.59,49.7,51.41,83.04c-5.75,88,1.03,180.78-57.51,256.75
			C2136.51,3819.36,2086.49,3838.03,2033.36,3843.23z"/>
		<path class="st1" d="M3614.5,2116c2.66-124.49,22.7-252.6-75.73-355.59c-43.71-45.74-121.38-50.2-147.48-114.89
			c-33.19-82.28,26.03-193.14,122.1-208.71c106.04-17.18,115,81.59,134.96,149.15c51.21,173.31,33.81,363.16,123.73,527.64
			c32.24,58.96,78.59,111.45,89.37,180.13c6.19,39.41-5.72,77.95-48.14,91.09c-75.71,23.45-121.92-21.43-159.21-78.69
			C3616.39,2248.23,3610.98,2182.87,3614.5,2116z"/>
	</g>
</g>
</svg>
